<?xml version="1.0" encoding="UTF-8" standalone="no"?><!DOCTYPE svg PUBLIC "-//W3C//DTD SVG 1.1//EN" "http://www.w3.org/Graphics/SVG/1.1/DTD/svg11.dtd"><svg width="100%" height="100%" viewBox="0 0 223 29" version="1.1" xmlns="http://www.w3.org/2000/svg" xmlns:xlink="http://www.w3.org/1999/xlink" xml:space="preserve" xmlns:serif="http://www.serif.com/" style="fill-rule:evenodd;clip-rule:evenodd;stroke-linejoin:round;stroke-miterlimit:2;"><g transform="matrix(0.75,0,0,0.75,-158.288,-216.09)"><g transform="matrix(48,0,0,48,211.044,325.645)"><path d="M0,-0.782l0,0.478c0,0.174 0.13,0.304 0.304,0.304l0.217,-0l0,-0.261l-0.217,0c-0.022,0 -0.043,-0.021 -0.043,-0.043l-0,-0.478l-0.261,0Z" style="fill:#ed573a;fill-rule:nonzero;"/></g><g transform="matrix(48,0,0,48,238.208,325.645)"><path d="M0.608,-0.304l-0.002,-0.304l-0.259,-0l0,0.304c0,0.022 -0.021,0.043 -0.043,0.043c-0.022,0 -0.043,-0.021 -0.043,-0.043l0.001,-0.304l-0.262,-0l0,0.304c0,0.174 0.13,0.304 0.304,0.304c0.174,-0 0.304,-0.13 0.304,-0.304Z" style="fill:#ed573a;fill-rule:nonzero;"/></g><g transform="matrix(48,0,0,48,269.735,325.645)"><path d="M0.347,-0.608l-0.043,0c-0.174,0 -0.304,0.13 -0.304,0.304c-0,0.174 0.13,0.304 0.304,0.304c0.174,-0 0.304,-0.13 0.304,-0.304l0.001,-0.434l-0.262,-0l0,0.13Zm0,0.261l0,0.043c0,0.022 -0.021,0.043 -0.043,0.043c-0.022,0 -0.043,-0.021 -0.043,-0.043c-0,-0.022 0.021,-0.043 0.043,-0.043l0.043,-0Z" style="fill:#ed573a;fill-rule:nonzero;"/></g><g transform="matrix(48,0,0,48,301.306,325.645)"><path d="M0.608,-0.304l-0.002,-0.304l-0.259,-0l0,0.304c0,0.022 -0.021,0.043 -0.043,0.043c-0.022,0 -0.043,-0.021 -0.043,-0.043l0.001,-0.304l-0.262,-0l0,0.304c0,0.174 0.13,0.304 0.304,0.304c0.174,-0 0.304,-0.13 0.304,-0.304Z" style="fill:#ed573a;fill-rule:nonzero;"/></g><g transform="matrix(48,0,0,48,332.833,325.645)"><path d="M0,-0.304l0.002,0.304l0.259,-0l-0,-0.304c-0,-0.022 0.021,-0.044 0.043,-0.044c0.022,0 0.043,0.022 0.043,0.044l-0.001,0.304l0.262,-0l0,-0.304c0,-0.022 0.022,-0.044 0.043,-0.044c0.022,0 0.044,0.022 0.044,0.044l-0.002,0.304l0.262,-0l0,-0.304c0,-0.174 -0.13,-0.304 -0.304,-0.304c-0.066,-0 -0.125,0.019 -0.173,0.051c-0.049,-0.032 -0.108,-0.051 -0.174,-0.051c-0.174,-0 -0.304,0.13 -0.304,0.304Z" style="fill:#ed573a;fill-rule:nonzero;"/></g><g transform="matrix(48,0,0,48,391.524,325.645)"><path d="M0,-0.782l0,0.782l0.347,-0c0.217,-0 0.326,-0.195 0.326,-0.391c-0,-0.195 -0.109,-0.391 -0.326,-0.391l-0.347,0Zm0.283,0.261l0.021,-0c0.065,-0 0.097,0.065 0.097,0.13c-0,0.065 -0.032,0.13 -0.097,0.13l-0.021,0l-0,-0.26Z" style="fill:#f69236;fill-rule:nonzero;"/></g><g transform="matrix(48,0,0,48,426.324,325.645)"><path d="M0.608,-0l0,-0.304c0,-0.174 -0.13,-0.304 -0.304,-0.304c-0.174,-0 -0.304,0.13 -0.304,0.304c0,0.174 0.13,0.304 0.304,0.304l0.304,-0Zm-0.261,-0.261l-0.043,0c-0.022,0 -0.043,-0.021 -0.043,-0.043c-0,-0.022 0.021,-0.044 0.043,-0.044c0.022,0 0.043,0.022 0.043,0.044l0,0.043Z" style="fill:#f69236;fill-rule:nonzero;"/></g><g transform="matrix(48,0,0,48,457.851,325.645)"><path d="M0.304,-0.348l0.087,0l0,-0.26l-0.087,-0c-0.174,-0 -0.304,0.13 -0.304,0.304l0.002,0.304l0.259,-0l-0,-0.304c-0,-0.022 0.021,-0.044 0.043,-0.044Z" style="fill:#f69236;fill-rule:nonzero;"/></g><g transform="matrix(48,0,0,48,478.47,325.645)"><path d="M0.547,-0.117l-0.2,-0.1l0.25,0c0.008,-0.027 0.011,-0.056 0.011,-0.087c0,-0.174 -0.13,-0.304 -0.304,-0.304c-0.174,-0 -0.304,0.13 -0.304,0.304c0,0.174 0.13,0.304 0.304,0.304c0.102,-0 0.188,-0.045 0.243,-0.117Zm-0.2,-0.187l-0.086,0l-0,-0.021c-0,-0.022 0.021,-0.044 0.043,-0.044c0.022,0 0.043,0.022 0.043,0.044l0,0.021Z" style="fill:#f69236;fill-rule:nonzero;"/></g></g></svg>